<svg width="28" height="28" viewBox="0 0 28 28" fill="none" xmlns="http://www.w3.org/2000/svg">
<path d="M14 24.5C19.799 24.5 24.5 19.799 24.5 14C24.5 8.20101 19.799 3.5 14 3.5C8.20101 3.5 3.5 8.20101 3.5 14C3.5 19.799 8.20101 24.5 14 24.5Z" stroke="#16151E" stroke-width="1.5" stroke-linecap="round" stroke-linejoin="round"/>
<path d="M18.202 14.0008C18.202 16.3204 16.3216 18.2008 14.002 18.2008C13.0517 18.2008 9.80234 18.2008 9.80234 18.2008C9.80234 18.2008 10.53 16.4536 10.2388 15.8678C9.9592 15.3054 9.802 14.6715 9.802 14.0008C9.802 11.6812 11.6824 9.80078 14.002 9.80078C16.3216 9.80078 18.202 11.6812 18.202 14.0008Z" stroke="#16151E" stroke-width="1.5" stroke-linecap="round" stroke-linejoin="round"/>
</svg>
