<svg width="14" height="14" viewBox="0 0 14 14" fill="none" xmlns="http://www.w3.org/2000/svg">
<path fill-rule="evenodd" clip-rule="evenodd" d="M12.8334 4.88651C12.8334 5.12217 12.639 5.31321 12.3992 5.31321H9.50475C9.26496 5.31321 9.07057 5.12217 9.07057 4.88651C9.07057 4.65085 9.26496 4.45981 9.50475 4.45981H12.3992C12.639 4.45981 12.8334 4.65085 12.8334 4.88651Z" fill="#16151E"/>
<path fill-rule="evenodd" clip-rule="evenodd" d="M12.8334 7.44672C12.8334 7.68238 12.639 7.87342 12.3992 7.87342H10.0836C9.84386 7.87342 9.64947 7.68238 9.64947 7.44672C9.64947 7.21105 9.84386 7.02001 10.0836 7.02001H12.3992C12.639 7.02001 12.8334 7.21105 12.8334 7.44672Z" fill="#16151E"/>
<path d="M7.34264 4.80539L7.55474 5.01384C8.4405 5.88435 8.88338 6.31961 8.88299 6.79147C8.88286 6.94561 8.85087 7.09812 8.78896 7.23974C8.59942 7.67328 8.01749 7.9009 6.85362 8.35614L6.76939 8.38908C6.43944 8.51814 6.27446 8.58267 6.14137 8.6863C6.0404 8.76491 5.95349 8.85954 5.88422 8.96628C5.79291 9.10697 5.74443 9.27484 5.64747 9.6106C5.49711 10.1312 5.42193 10.3916 5.26161 10.5071C5.14246 10.5929 4.99443 10.6308 4.84782 10.6128C4.65054 10.5887 4.45584 10.3974 4.06645 10.0147L3.46733 9.42587L1.90793 10.9584C1.73837 11.125 1.46347 11.125 1.29391 10.9584C1.12436 10.7917 1.12436 10.5215 1.29391 10.3549L2.84748 8.81669L2.25421 8.23364C1.86482 7.85095 1.67012 7.6596 1.64557 7.46572C1.62733 7.32163 1.66583 7.17614 1.75319 7.05905C1.87073 6.90149 2.13561 6.8276 2.66537 6.67983C3.00701 6.58454 3.17782 6.53689 3.32098 6.44715C3.42958 6.37907 3.52587 6.29366 3.60586 6.19443C3.7113 6.06363 3.77696 5.90149 3.90828 5.57722L3.94181 5.49444C4.40502 4.35061 4.63662 3.77869 5.07775 3.59242C5.22185 3.53157 5.37703 3.50013 5.53387 3.5C6.014 3.49962 6.45688 3.93488 7.34264 4.80539Z" fill="#16151E"/>
<path fill-rule="evenodd" clip-rule="evenodd" d="M12.8334 10.0069C12.8334 10.2426 12.639 10.4336 12.3992 10.4336H7.18915C6.94937 10.4336 6.75498 10.2426 6.75498 10.0069C6.75498 9.77126 6.94937 9.58022 7.18915 9.58022H12.3992C12.639 9.58022 12.8334 9.77126 12.8334 10.0069Z" fill="#16151E"/>
</svg>
