<svg width="20" height="20" viewBox="0 0 20 20" fill="none" xmlns="http://www.w3.org/2000/svg">
<path fill-rule="evenodd" clip-rule="evenodd" d="M10 1.875C5.51269 1.875 1.875 5.51269 1.875 10C1.875 14.4873 5.51269 18.125 10 18.125C14.4873 18.125 18.125 14.4873 18.125 10C18.125 5.51269 14.4873 1.875 10 1.875ZM10.625 7.5C10.625 7.15482 10.3452 6.875 10 6.875C9.65482 6.875 9.375 7.15482 9.375 7.5V9.375H7.5C7.15482 9.375 6.875 9.65482 6.875 10C6.875 10.3452 7.15482 10.625 7.5 10.625H9.375V12.5C9.375 12.8452 9.65482 13.125 10 13.125C10.3452 13.125 10.625 12.8452 10.625 12.5V10.625H12.5C12.8452 10.625 13.125 10.3452 13.125 10C13.125 9.65482 12.8452 9.375 12.5 9.375H10.625V7.5Z" fill="#16151E"/>
</svg>
