<svg width="18" height="18" viewBox="0 0 18 18" fill="none" xmlns="http://www.w3.org/2000/svg">
<path d="M8.51613 11.6411L13.375 16.5C14.2379 17.3629 15.6371 17.3629 16.5 16.5C17.3629 15.6371 17.3629 14.2379 16.5 13.375L11.6027 8.47774M8.51613 11.6411L10.5962 9.11529C10.8596 8.79551 11.2118 8.59433 11.6027 8.47774M8.51613 11.6411L4.63693 16.3516C4.23364 16.8413 3.63247 17.125 2.99807 17.125C1.82553 17.125 0.875 16.1745 0.875 15.0019C0.875 14.3675 1.1587 13.7664 1.64842 13.3631L7.34551 8.67134M11.6027 8.47774C12.0606 8.34119 12.5715 8.32067 13.0549 8.36153C13.1604 8.37045 13.2672 8.375 13.375 8.375C15.4461 8.375 17.125 6.69607 17.125 4.625C17.125 4.07478 17.0065 3.55223 16.7936 3.08149L14.0635 5.81164C13.1338 5.59821 12.4019 4.86636 12.1885 3.93664L14.9187 1.20645C14.4479 0.993528 13.9253 0.875 13.375 0.875C11.3039 0.875 9.625 2.55393 9.625 4.625C9.625 4.73282 9.62955 4.83958 9.63847 4.94509C9.71423 5.8413 9.57899 6.83201 8.88471 7.40377L8.79965 7.47382M7.34551 8.67134L3.92417 5.25H2.75L0.875 2.125L2.125 0.875L5.25 2.75V3.92417L8.79965 7.47382M7.34551 8.67134L8.79965 7.47382M14.3125 14.3125L12.125 12.125M3.05603 14.9375H3.06228V14.9438H3.05603V14.9375Z" stroke="#16151E" stroke-width="1.25" stroke-linecap="round" stroke-linejoin="round"/>
</svg>
