<svg width="20" height="20" viewBox="0 0 20 20" fill="none" xmlns="http://www.w3.org/2000/svg">
<path d="M16.25 17.5C17.6307 17.5 18.75 16.3807 18.75 15V11.25C18.75 9.86929 17.6307 8.75 16.25 8.75H3.75C2.36929 8.75 1.25 9.86929 1.25 11.25V15C1.25 16.3807 2.36929 17.5 3.75 17.5H16.25Z" fill="#16151E"/>
<path d="M1.25 8.45487V5C1.25 3.61929 2.36929 2.5 3.75 2.5H8.23223C8.72951 2.5 9.20643 2.69754 9.55806 3.04917L11.3258 4.81694C11.443 4.93415 11.602 5 11.7678 5H16.25C17.6307 5 18.75 6.11929 18.75 7.5V8.45487C18.0866 7.86107 17.2104 7.5 16.25 7.5H3.75C2.78956 7.5 1.91345 7.86107 1.25 8.45487Z" fill="#16151E"/>
</svg>
