<svg width="18" height="13" viewBox="0 0 18 13" fill="none" xmlns="http://www.w3.org/2000/svg">
<path fill-rule="evenodd" clip-rule="evenodd" d="M0.25 1.9375C0.25 1.07456 0.949555 0.375 1.8125 0.375H6.8125C7.67544 0.375 8.375 1.07456 8.375 1.9375V5.0625C8.375 5.92545 7.67544 6.625 6.8125 6.625H1.8125C0.949555 6.625 0.25 5.92544 0.25 5.0625V1.9375ZM10.25 3.1875C10.25 2.32456 10.9496 1.625 11.8125 1.625H16.1875C17.0504 1.625 17.75 2.32456 17.75 3.1875V10.0625C17.75 10.9254 17.0504 11.625 16.1875 11.625H11.8125C10.9496 11.625 10.25 10.9254 10.25 10.0625V3.1875ZM1.5 9.4375C1.5 8.57456 2.19956 7.875 3.0625 7.875H7.4375C8.30044 7.875 9 8.57456 9 9.4375V11.3125C9 12.1754 8.30044 12.875 7.4375 12.875H3.0625C2.19955 12.875 1.5 12.1754 1.5 11.3125V9.4375Z" fill="#16151E"/>
</svg>
