<svg width="20" height="20" viewBox="0 0 20 20" fill="none" xmlns="http://www.w3.org/2000/svg">
<path d="M16.318 15.434C17.5741 13.9749 18.3334 12.0761 18.3334 9.99984C18.3334 7.92361 17.5741 6.02473 16.318 4.56572L12.7574 8.12632C13.1209 8.66025 13.3334 9.30523 13.3334 9.99984C13.3334 10.6944 13.1209 11.3394 12.7574 11.8734L16.318 15.434Z" fill="#16151E"/>
<path d="M15.4341 16.3178C13.9751 17.5739 12.0762 18.3332 10 18.3332C7.9238 18.3332 6.02491 17.5739 4.5659 16.3178L8.12651 12.7572C8.66043 13.1207 9.30541 13.3332 10 13.3332C10.6946 13.3332 11.3396 13.1207 11.8735 12.7572L15.4341 16.3178Z" fill="#16151E"/>
<path d="M3.68202 15.434L7.24262 11.8734C6.87915 11.3394 6.66669 10.6944 6.66669 9.99984C6.66669 9.30523 6.87915 8.66025 7.24262 8.12632L3.68202 4.56572C2.42597 6.02473 1.66669 7.92361 1.66669 9.99984C1.66669 12.0761 2.42597 13.9749 3.68202 15.434Z" fill="#16151E"/>
<path d="M10 6.6665C9.30541 6.6665 8.66043 6.87896 8.12651 7.24244L4.5659 3.68183C6.02491 2.42579 7.9238 1.6665 10 1.6665C12.0762 1.6665 13.9751 2.42579 15.4341 3.68183L11.8735 7.24244C11.3396 6.87896 10.6946 6.6665 10 6.6665Z" fill="#16151E"/>
</svg>
