<svg width="20" height="20" viewBox="0 0 20 20" fill="none" xmlns="http://www.w3.org/2000/svg">
<path d="M17.2703 8.63984L16.25 8.29922V4.375C16.25 4.04348 16.1183 3.72554 15.8839 3.49112C15.6495 3.2567 15.3315 3.125 15 3.125H10.625V1.875C10.625 1.70924 10.5592 1.55027 10.4419 1.43306C10.3247 1.31585 10.1658 1.25 10 1.25C9.83424 1.25 9.67527 1.31585 9.55806 1.43306C9.44085 1.55027 9.375 1.70924 9.375 1.875V3.125H5C4.66848 3.125 4.35054 3.2567 4.11612 3.49112C3.8817 3.72554 3.75 4.04348 3.75 4.375V8.29922L2.72969 8.63984C2.48079 8.72282 2.26431 8.882 2.11091 9.09485C1.95752 9.3077 1.87498 9.56342 1.875 9.82578V11.875C1.875 16.6828 9.52266 18.65 9.84844 18.7312C9.94795 18.7561 10.0521 18.7561 10.1516 18.7312C10.4773 18.65 18.125 16.6828 18.125 11.875V9.82578C18.125 9.56342 18.0425 9.3077 17.8891 9.09485C17.7357 8.882 17.5192 8.72282 17.2703 8.63984ZM10.625 13.125C10.625 13.2908 10.5592 13.4497 10.4419 13.5669C10.3247 13.6842 10.1658 13.75 10 13.75C9.83424 13.75 9.67527 13.6842 9.55806 13.5669C9.44085 13.4497 9.375 13.2908 9.375 13.125V8.19297C9.375 8.02721 9.44085 7.86824 9.55806 7.75103C9.67527 7.63382 9.83424 7.56797 10 7.56797C10.1658 7.56797 10.3247 7.63382 10.4419 7.75103C10.5592 7.86824 10.625 8.02721 10.625 8.19297V13.125ZM15 7.88281L10.1977 6.28203C10.0694 6.23926 9.93064 6.23926 9.80234 6.28203L5 7.88281V4.375H15V7.88281Z" fill="#16151E"/>
</svg>
