<svg width="20" height="20" viewBox="0 0 20 20" fill="none" xmlns="http://www.w3.org/2000/svg">
<path d="M2.8125 2.5C1.94956 2.5 1.25 3.19956 1.25 4.0625V4.6875C1.25 5.55044 1.94955 6.25 2.8125 6.25H17.1875C18.0504 6.25 18.75 5.55044 18.75 4.6875V4.0625C18.75 3.19956 18.0504 2.5 17.1875 2.5H2.8125Z" fill="#16151E"/>
<path fill-rule="evenodd" clip-rule="evenodd" d="M2.57233 7.5L3.02214 15.1468C3.09987 16.4682 4.19413 17.5 5.51783 17.5H14.4819C15.8056 17.5 16.8999 16.4682 16.9776 15.1468L17.4274 7.5H2.57233ZM7.70813 10.625C7.70813 10.2798 7.98795 10 8.33313 10H11.6665C12.0116 10 12.2915 10.2798 12.2915 10.625C12.2915 10.9702 12.0116 11.25 11.6665 11.25H8.33313C7.98795 11.25 7.70813 10.9702 7.70813 10.625Z" fill="#16151E"/>
</svg>
