<svg width="20" height="20" viewBox="0 0 20 20" fill="none" xmlns="http://www.w3.org/2000/svg">
<path fill-rule="evenodd" clip-rule="evenodd" d="M10 5.625C10 3.20875 11.9588 1.25 14.375 1.25C14.8159 1.25 15.2427 1.31543 15.6456 1.43754C15.8558 1.50126 16.0172 1.67066 16.0706 1.88374C16.124 2.09681 16.0616 2.32228 15.9063 2.47761L13.1407 5.24319C13.1921 5.63951 13.3699 6.02151 13.6742 6.32583C13.9785 6.63014 14.3605 6.80789 14.7568 6.85931L17.5224 4.09373C17.6777 3.9384 17.9032 3.87602 18.1163 3.92942C18.3293 3.98282 18.4987 4.14416 18.5625 4.35438C18.6846 4.75725 18.75 5.18405 18.75 5.625C18.75 8.04125 16.7912 10 14.375 10C14.2496 10 14.1253 9.99471 14.0023 9.98431C13.1546 9.91265 12.4448 10.068 12.0787 10.5126L6.11939 17.7489C5.59737 18.3828 4.81923 18.75 3.99807 18.75C2.48035 18.75 1.25 17.5196 1.25 16.0019C1.25 15.1808 1.61722 14.4026 2.2511 13.8806L9.48739 7.92131C9.93197 7.55519 10.0873 6.84544 10.0157 5.99774C10.0053 5.87473 10 5.75041 10 5.625ZM3.43103 15.9375C3.43103 15.5924 3.71085 15.3125 4.05603 15.3125H4.06228C4.40746 15.3125 4.68728 15.5924 4.68728 15.9375V15.9438C4.68728 16.289 4.40746 16.5688 4.06228 16.5688H4.05603C3.71085 16.5688 3.43103 16.289 3.43103 15.9438V15.9375Z" fill="#16151E"/>
<path d="M8.39664 7.20026L6.56251 5.36613V4.06251C6.56251 3.84297 6.44733 3.63953 6.25907 3.52658L3.13407 1.65158C2.88815 1.50403 2.57336 1.54278 2.37057 1.74557L1.74557 2.37057C1.54278 2.57336 1.50403 2.88815 1.65158 3.13407L3.52658 6.25907C3.63953 6.44733 3.84297 6.56251 4.06251 6.56251H5.36613L7.08448 8.28086L8.39664 7.20026Z" fill="#16151E"/>
<path fill-rule="evenodd" clip-rule="evenodd" d="M10.4633 14.4406L13.9489 17.9262C15.0472 19.0245 16.828 19.0245 17.9263 17.9262C19.0247 16.8278 19.0247 15.0471 17.9263 13.9487L15.1716 11.194C14.9114 11.2309 14.6455 11.25 14.3751 11.25C14.2145 11.25 14.055 11.2432 13.8971 11.2298C13.5685 11.2021 13.3283 11.2247 13.1741 11.2647C13.0877 11.2871 13.0479 11.3094 13.0349 11.3179L10.4633 14.4406ZM13.3081 13.3081C13.5522 13.064 13.9479 13.064 14.192 13.3081L15.7545 14.8706C15.9986 15.1146 15.9986 15.5104 15.7545 15.7544C15.5104 15.9985 15.1147 15.9985 14.8706 15.7544L13.3081 14.1919C13.0641 13.9479 13.0641 13.5521 13.3081 13.3081Z" fill="#16151E"/>
</svg>
