<svg width="16" height="16" viewBox="0 0 16 16" fill="none" xmlns="http://www.w3.org/2000/svg">
<path d="M5.33447 4.66659C5.34254 3.21657 5.40684 2.43129 5.9191 1.91904C6.50489 1.33325 7.4477 1.33325 9.33331 1.33325H9.99998C11.8856 1.33325 12.8284 1.33325 13.4142 1.91904C14 2.50482 14 3.44763 14 5.33325V10.6666C14 12.5522 14 13.495 13.4142 14.0808C12.8284 14.6666 11.8856 14.6666 9.99998 14.6666H9.33331C7.4477 14.6666 6.50489 14.6666 5.9191 14.0808C5.40684 13.5685 5.34254 12.7833 5.33447 11.3333" stroke="#8A8F9F" stroke-linecap="round"/>
<path d="M5.33333 13C3.76198 13 2.97631 13 2.48816 12.5118C2 12.0237 2 11.238 2 9.66667V6.33333C2 4.76199 2 3.97631 2.48816 3.48816C2.97631 3 3.76198 3 5.33333 3" stroke="#8A8F9F"/>
<path d="M10 8.00008L4 8.00008M4 8.00008L5.33333 9.33341M4 8.00008L5.33333 6.66675" stroke="#8A8F9F" stroke-linecap="round" stroke-linejoin="round"/>
</svg>
