<svg width="14" height="14" viewBox="0 0 14 14" fill="none" xmlns="http://www.w3.org/2000/svg">
<path d="M1.75 7.65625C1.75 7.29381 2.04381 7 2.40625 7H3.71875C4.08119 7 4.375 7.29381 4.375 7.65625V11.5938C4.375 11.9562 4.08119 12.25 3.71875 12.25H2.40625C2.04381 12.25 1.75 11.9562 1.75 11.5938V7.65625Z" stroke="#3F3D50" stroke-width="0.875" stroke-linecap="round" stroke-linejoin="round"/>
<path d="M5.6875 5.03125C5.6875 4.66881 5.98131 4.375 6.34375 4.375H7.65625C8.01869 4.375 8.3125 4.66881 8.3125 5.03125V11.5938C8.3125 11.9562 8.01869 12.25 7.65625 12.25H6.34375C5.98131 12.25 5.6875 11.9562 5.6875 11.5938V5.03125Z" stroke="#3F3D50" stroke-width="0.875" stroke-linecap="round" stroke-linejoin="round"/>
<path d="M9.625 2.40625C9.625 2.04381 9.91881 1.75 10.2812 1.75H11.5938C11.9562 1.75 12.25 2.04381 12.25 2.40625V11.5938C12.25 11.9562 11.9562 12.25 11.5938 12.25H10.2812C9.91881 12.25 9.625 11.9562 9.625 11.5938V2.40625Z" stroke="#3F3D50" stroke-width="0.875" stroke-linecap="round" stroke-linejoin="round"/>
</svg>
