<svg width="20" height="20" viewBox="0 0 20 20" fill="none" xmlns="http://www.w3.org/2000/svg">
<path fill-rule="evenodd" clip-rule="evenodd" d="M8.75 2.5C8.17842 2.5 7.69495 2.88416 7.54675 3.40958C7.51642 3.51709 7.5 3.63111 7.5 3.75H12.5C12.5 3.63111 12.4836 3.51709 12.4533 3.40958C12.305 2.88416 11.8216 2.5 11.25 2.5H8.75ZM6.50545 2.64824C6.91259 1.8203 7.7641 1.25 8.75 1.25H11.25C12.2359 1.25 13.0874 1.8203 13.4946 2.64824C13.9092 2.68357 14.3221 2.72514 14.7332 2.77284C15.981 2.91766 16.875 3.98935 16.875 5.21416V16.25C16.875 17.6307 15.7557 18.75 14.375 18.75H5.625C4.24429 18.75 3.125 17.6307 3.125 16.25V5.21416C3.125 3.98935 4.01903 2.91765 5.26685 2.77284C5.67789 2.72514 6.09079 2.68357 6.50545 2.64824Z" fill="#16151E"/>
</svg>
