<svg width="20" height="20" viewBox="0 0 20 20" fill="none" xmlns="http://www.w3.org/2000/svg">
<path d="M4.6875 1.25C3.82456 1.25 3.125 1.94955 3.125 2.8125V17.1875C3.125 18.0504 3.82455 18.75 4.6875 18.75H15.3125C16.1754 18.75 16.875 18.0504 16.875 17.1875V10.625C16.875 8.89911 15.4759 7.5 13.75 7.5H12.1875C11.3246 7.5 10.625 6.80044 10.625 5.9375V4.375C10.625 2.64911 9.22589 1.25 7.5 1.25H4.6875Z" fill="#16151E"/>
<path d="M10.8093 1.51325C11.4733 2.2804 11.875 3.28079 11.875 4.375V5.9375C11.875 6.11009 12.0149 6.25 12.1875 6.25H13.75C14.8442 6.25 15.8446 6.6517 16.6117 7.31567C15.8719 4.48323 13.6418 2.25315 10.8093 1.51325Z" fill="#16151E"/>
</svg>
