<svg width="20" height="20" viewBox="0 0 20 20" fill="none" xmlns="http://www.w3.org/2000/svg">
<path fill-rule="evenodd" clip-rule="evenodd" d="M7.8343 2.50265C8.79637 0.835055 11.2032 0.835055 12.1652 2.50265L18.2938 13.1256C19.2554 14.7922 18.0525 16.8749 16.1284 16.8749H3.87116C1.94701 16.8749 0.744157 14.7922 1.70569 13.1256L7.8343 2.50265ZM9.99994 6.87482C10.3451 6.87482 10.6249 7.15464 10.6249 7.49982V10.6248C10.6249 10.97 10.3451 11.2498 9.99994 11.2498C9.65476 11.2498 9.37494 10.97 9.37494 10.6248V7.49982C9.37494 7.15464 9.65476 6.87482 9.99994 6.87482ZM9.99994 13.7498C10.3451 13.7498 10.6249 13.47 10.6249 13.1248C10.6249 12.7796 10.3451 12.4998 9.99994 12.4998C9.65476 12.4998 9.37494 12.7796 9.37494 13.1248C9.37494 13.47 9.65476 13.7498 9.99994 13.7498Z" fill="#16151E"/>
</svg>
