<svg width="14" height="14" viewBox="0 0 14 14" fill="none" xmlns="http://www.w3.org/2000/svg">
<path d="M9.13835 2.26793C8.98283 1.71659 8.4761 1.3125 7.875 1.3125H6.125C5.5239 1.3125 5.01717 1.71659 4.86165 2.26793M9.13835 2.26793C9.17037 2.38146 9.1875 2.50123 9.1875 2.625V2.625C9.1875 2.86662 8.99162 3.0625 8.75 3.0625H5.25C5.00838 3.0625 4.8125 2.86662 4.8125 2.625V2.625C4.8125 2.50123 4.82963 2.38146 4.86165 2.26793M9.13835 2.26793C9.51529 2.2964 9.89014 2.33233 10.2628 2.37557C10.9048 2.45008 11.375 3.00358 11.375 3.64991V11.375C11.375 12.0999 10.7874 12.6875 10.0625 12.6875H3.9375C3.21263 12.6875 2.625 12.0999 2.625 11.375V3.64991C2.625 3.00358 3.09521 2.45008 3.73723 2.37557C4.10986 2.33233 4.48471 2.2964 4.86165 2.26793" stroke="#3F3D50" stroke-width="0.88" stroke-linecap="round" stroke-linejoin="round"/>
</svg>
